# xmcd
#
# Track frame offsets:
#	150
#	15914
#	36523
#	55523
#	74090
#	94078
#	114880
#	134138
#	152119
#	175153
#	195190
#	215710
#
# Disc length: 3120 seconds
#
# Revision: 1
# Processed by: cddbd v1.5.2PL0 Copyright (c) Steve Scherf et al.
# Submitted via: EasyCDDAExtractor 12.0.0.1
#
DISCID=a40c2e0c
DTITLE=장혜진 - 불후의 명작 3 CD (Vitamin Entertainment-2009)-CD3
DYEAR=2009
DGENRE=Ballad
TTITLE0=비가 내리는 날
TTITLE1=이연(異緣)
TTITLE2=왜 나만 아프죠
TTITLE3=힘겨운 사랑
TTITLE4=위기의 여자
TTITLE5=For Your Love
TTITLE6=잊어야 한다는 것
TTITLE7=괜찮습니다(Feat. B.Box)
TTITLE8=실연
TTITLE9=내게로
TTITLE10=잡을 수 없는 너
TTITLE11=오늘만은
EXTD=
EXTT0=
EXTT1=
EXTT2=
EXTT3=
EXTT4=
EXTT5=
EXTT6=
EXTT7=
EXTT8=
EXTT9=
EXTT10=
EXTT11=
PLAYORDER=
